<svg id="visual" viewBox="0 0 960 540" width="960" height="540" xmlns="http://www.w3.org/2000/svg" xmlns:xlink="http://www.w3.org/1999/xlink" version="1.1"><g stroke-width="1" stroke-linejoin="bevel"><path d="M440.7 325L413.7 296L328 349Z" fill="#112e42" stroke="#112e42"></path><path d="M328 349L445.7 425L440.7 325Z" fill="#1d4e6b" stroke="#1d4e6b"></path><path d="M413.7 296L297 283L328 349Z" fill="#205a7a" stroke="#205a7a"></path><path d="M201.3 444L326 456L328 349Z" fill="#00101c" stroke="#00101c"></path><path d="M328 349L326 456L445.7 425Z" fill="#112e42" stroke="#112e42"></path><path d="M297 283L225.3 331L328 349Z" fill="#277297" stroke="#277297"></path><path d="M512.3 184L423.7 189L413.7 296Z" fill="#00101c" stroke="#00101c"></path><path d="M413.7 296L291 214L297 283Z" fill="#1d4e6b" stroke="#1d4e6b"></path><path d="M297 283L211.3 309L225.3 331Z" fill="#0c2435" stroke="#0c2435"></path><path d="M423.7 189L291 214L413.7 296Z" fill="#205a7a" stroke="#205a7a"></path><path d="M540.3 540L538.3 438L445.7 425Z" fill="#19435d" stroke="#19435d"></path><path d="M445.7 425L572.3 387L440.7 325Z" fill="#1d4e6b" stroke="#1d4e6b"></path><path d="M440.7 325L558.3 266L413.7 296Z" fill="#19435d" stroke="#19435d"></path><path d="M217.3 204L211.3 309L297 283Z" fill="#19435d" stroke="#19435d"></path><path d="M538.3 438L572.3 387L445.7 425Z" fill="#081a28" stroke="#081a28"></path><path d="M572.3 387L558.3 266L440.7 325Z" fill="#277297" stroke="#277297"></path><path d="M303 540L386.7 540L326 456Z" fill="#277297" stroke="#277297"></path><path d="M326 456L386.7 540L445.7 425Z" fill="#112e42" stroke="#112e42"></path><path d="M558.3 266L512.3 184L413.7 296Z" fill="#205a7a" stroke="#205a7a"></path><path d="M140.7 436L201.3 444L225.3 331Z" fill="#081a28" stroke="#081a28"></path><path d="M225.3 331L201.3 444L328 349Z" fill="#0c2435" stroke="#0c2435"></path><path d="M233.3 540L303 540L326 456Z" fill="#19435d" stroke="#19435d"></path><path d="M205.3 103L217.3 204L291 214Z" fill="#205a7a" stroke="#205a7a"></path><path d="M291 214L217.3 204L297 283Z" fill="#19435d" stroke="#19435d"></path><path d="M91.7 382L140.7 436L225.3 331Z" fill="#19435d" stroke="#19435d"></path><path d="M201.3 444L233.3 540L326 456Z" fill="#081a28" stroke="#081a28"></path><path d="M386.7 540L540.3 540L445.7 425Z" fill="#19435d" stroke="#19435d"></path><path d="M538.3 438L660 416L572.3 387Z" fill="#15384f" stroke="#15384f"></path><path d="M527.3 110L408.7 89L423.7 189Z" fill="#246688" stroke="#246688"></path><path d="M423.7 189L408.7 89L291 214Z" fill="#081a28" stroke="#081a28"></path><path d="M91.7 382L225.3 331L211.3 309Z" fill="#297ea6" stroke="#297ea6"></path><path d="M201.3 444L131.7 540L233.3 540Z" fill="#0c2435" stroke="#0c2435"></path><path d="M558.3 266L614 202L512.3 184Z" fill="#15384f" stroke="#15384f"></path><path d="M512.3 184L527.3 110L423.7 189Z" fill="#081a28" stroke="#081a28"></path><path d="M678 295L614 202L558.3 266Z" fill="#00101c" stroke="#00101c"></path><path d="M678 295L558.3 266L572.3 387Z" fill="#19435d" stroke="#19435d"></path><path d="M217.3 204L122.7 284L211.3 309Z" fill="#081a28" stroke="#081a28"></path><path d="M614 202L527.3 110L512.3 184Z" fill="#19435d" stroke="#19435d"></path><path d="M615 540L660 416L538.3 438Z" fill="#205a7a" stroke="#205a7a"></path><path d="M660 416L676 369L572.3 387Z" fill="#297ea6" stroke="#297ea6"></path><path d="M408.7 89L307 66L291 214Z" fill="#1d4e6b" stroke="#1d4e6b"></path><path d="M217.3 204L145.7 141L122.7 284Z" fill="#0c2435" stroke="#0c2435"></path><path d="M328 0L307 66L408.7 89Z" fill="#1d4e6b" stroke="#1d4e6b"></path><path d="M676 369L678 295L572.3 387Z" fill="#00101c" stroke="#00101c"></path><path d="M122.7 284L91.7 382L211.3 309Z" fill="#297ea6" stroke="#297ea6"></path><path d="M140.7 436L131.7 540L201.3 444Z" fill="#112e42" stroke="#112e42"></path><path d="M540.3 540L615 540L538.3 438Z" fill="#0c2435" stroke="#0c2435"></path><path d="M307 66L205.3 103L291 214Z" fill="#15384f" stroke="#15384f"></path><path d="M205.3 103L145.7 141L217.3 204Z" fill="#15384f" stroke="#15384f"></path><path d="M122.7 284L0 326L91.7 382Z" fill="#19435d" stroke="#19435d"></path><path d="M0 426L131.7 540L140.7 436Z" fill="#00101c" stroke="#00101c"></path><path d="M778.7 333L721.7 295L676 369Z" fill="#277297" stroke="#277297"></path><path d="M676 369L721.7 295L678 295Z" fill="#112e42" stroke="#112e42"></path><path d="M678 295L741.7 173L614 202Z" fill="#277297" stroke="#277297"></path><path d="M541.3 0L451.7 0L527.3 110Z" fill="#0c2435" stroke="#0c2435"></path><path d="M722.7 430L676 369L660 416Z" fill="#1d4e6b" stroke="#1d4e6b"></path><path d="M615 540L722.7 430L660 416Z" fill="#081a28" stroke="#081a28"></path><path d="M307 66L222.3 0L205.3 103Z" fill="#15384f" stroke="#15384f"></path><path d="M205.3 103L108.7 77L145.7 141Z" fill="#205a7a" stroke="#205a7a"></path><path d="M451.7 0L328 0L408.7 89Z" fill="#0c2435" stroke="#0c2435"></path><path d="M618 65L527.3 110L614 202Z" fill="#1d4e6b" stroke="#1d4e6b"></path><path d="M527.3 110L451.7 0L408.7 89Z" fill="#081a28" stroke="#081a28"></path><path d="M734.7 91L618 65L614 202Z" fill="#246688" stroke="#246688"></path><path d="M618 65L541.3 0L527.3 110Z" fill="#112e42" stroke="#112e42"></path><path d="M328 0L222.3 0L307 66Z" fill="#0c2435" stroke="#0c2435"></path><path d="M0 231L122.7 284L145.7 141Z" fill="#277297" stroke="#277297"></path><path d="M0 231L0 326L122.7 284Z" fill="#205a7a" stroke="#205a7a"></path><path d="M91.7 382L0 426L140.7 436Z" fill="#00101c" stroke="#00101c"></path><path d="M222.3 0L108.7 77L205.3 103Z" fill="#1d4e6b" stroke="#1d4e6b"></path><path d="M722.7 430L778.7 333L676 369Z" fill="#15384f" stroke="#15384f"></path><path d="M721.7 295L741.7 173L678 295Z" fill="#1d4e6b" stroke="#1d4e6b"></path><path d="M0 326L0 426L91.7 382Z" fill="#297ea6" stroke="#297ea6"></path><path d="M852.3 206L741.7 173L721.7 295Z" fill="#15384f" stroke="#15384f"></path><path d="M0 176L0 231L145.7 141Z" fill="#246688" stroke="#246688"></path><path d="M0 110L0 176L145.7 141Z" fill="#00101c" stroke="#00101c"></path><path d="M734.7 91L633 0L618 65Z" fill="#1d4e6b" stroke="#1d4e6b"></path><path d="M618 65L633 0L541.3 0Z" fill="#1d4e6b" stroke="#1d4e6b"></path><path d="M0 426L0 540L131.7 540Z" fill="#112e42" stroke="#112e42"></path><path d="M852.3 206L734.7 91L741.7 173Z" fill="#297ea6" stroke="#297ea6"></path><path d="M741.7 173L734.7 91L614 202Z" fill="#246688" stroke="#246688"></path><path d="M615 540L775.7 540L722.7 430Z" fill="#19435d" stroke="#19435d"></path><path d="M722.7 430L819.3 391L778.7 333Z" fill="#0c2435" stroke="#0c2435"></path><path d="M859.3 486L819.3 391L722.7 430Z" fill="#297ea6" stroke="#297ea6"></path><path d="M778.7 333L865.3 266L721.7 295Z" fill="#297ea6" stroke="#297ea6"></path><path d="M222.3 0L103.7 0L108.7 77Z" fill="#081a28" stroke="#081a28"></path><path d="M108.7 77L0 110L145.7 141Z" fill="#15384f" stroke="#15384f"></path><path d="M0 0L0 110L108.7 77Z" fill="#246688" stroke="#246688"></path><path d="M960 371L865.3 266L819.3 391Z" fill="#19435d" stroke="#19435d"></path><path d="M819.3 391L865.3 266L778.7 333Z" fill="#19435d" stroke="#19435d"></path><path d="M865.3 266L852.3 206L721.7 295Z" fill="#112e42" stroke="#112e42"></path><path d="M775.7 540L859.3 486L722.7 430Z" fill="#112e42" stroke="#112e42"></path><path d="M103.7 0L0 0L108.7 77Z" fill="#19435d" stroke="#19435d"></path><path d="M886.3 52L785.7 0L734.7 91Z" fill="#0c2435" stroke="#0c2435"></path><path d="M734.7 91L785.7 0L633 0Z" fill="#246688" stroke="#246688"></path><path d="M775.7 540L884.3 540L859.3 486Z" fill="#081a28" stroke="#081a28"></path><path d="M960 419L960 371L819.3 391Z" fill="#00101c" stroke="#00101c"></path><path d="M960 419L819.3 391L859.3 486Z" fill="#19435d" stroke="#19435d"></path><path d="M865.3 266L960 276L852.3 206Z" fill="#15384f" stroke="#15384f"></path><path d="M852.3 206L886.3 52L734.7 91Z" fill="#246688" stroke="#246688"></path><path d="M960 540L960 419L859.3 486Z" fill="#205a7a" stroke="#205a7a"></path><path d="M960 371L960 276L865.3 266Z" fill="#297ea6" stroke="#297ea6"></path><path d="M960 148L886.3 52L852.3 206Z" fill="#112e42" stroke="#112e42"></path><path d="M884.3 540L960 540L859.3 486Z" fill="#277297" stroke="#277297"></path><path d="M960 276L960 148L852.3 206Z" fill="#0c2435" stroke="#0c2435"></path><path d="M960 0L886.3 0L886.3 52Z" fill="#277297" stroke="#277297"></path><path d="M886.3 52L886.3 0L785.7 0Z" fill="#246688" stroke="#246688"></path><path d="M960 148L960 107L886.3 52Z" fill="#205a7a" stroke="#205a7a"></path><path d="M960 107L960 0L886.3 52Z" fill="#081a28" stroke="#081a28"></path></g></svg>