<svg id="visual" viewBox="0 0 960 540" width="960" height="540" xmlns="http://www.w3.org/2000/svg" xmlns:xlink="http://www.w3.org/1999/xlink" version="1.1"><path d="M0 168L87 168L87 93L175 93L175 212L262 212L262 201L349 201L349 104L436 104L436 136L524 136L524 206L611 206L611 98L698 98L698 244L785 244L785 195L873 195L873 93L960 93L960 158L960 0L960 0L873 0L873 0L785 0L785 0L698 0L698 0L611 0L611 0L524 0L524 0L436 0L436 0L349 0L349 0L262 0L262 0L175 0L175 0L87 0L87 0L0 0Z" fill="#fa7268"></path><path d="M0 309L87 309L87 303L175 303L175 347L262 347L262 309L349 309L349 282L436 282L436 336L524 336L524 309L611 309L611 330L698 330L698 336L785 336L785 271L873 271L873 357L960 357L960 330L960 156L960 91L873 91L873 193L785 193L785 242L698 242L698 96L611 96L611 204L524 204L524 134L436 134L436 102L349 102L349 199L262 199L262 210L175 210L175 91L87 91L87 166L0 166Z" fill="#ea5e66"></path><path d="M0 379L87 379L87 395L175 395L175 395L262 395L262 384L349 384L349 341L436 341L436 374L524 374L524 341L611 341L611 406L698 406L698 422L785 422L785 314L873 314L873 411L960 411L960 417L960 328L960 355L873 355L873 269L785 269L785 334L698 334L698 328L611 328L611 307L524 307L524 334L436 334L436 280L349 280L349 307L262 307L262 345L175 345L175 301L87 301L87 307L0 307Z" fill="#d84a64"></path><path d="M0 460L87 460L87 438L175 438L175 438L262 438L262 449L349 449L349 444L436 444L436 492L524 492L524 379L611 379L611 482L698 482L698 471L785 471L785 411L873 411L873 449L960 449L960 476L960 415L960 409L873 409L873 312L785 312L785 420L698 420L698 404L611 404L611 339L524 339L524 372L436 372L436 339L349 339L349 382L262 382L262 393L175 393L175 393L87 393L87 377L0 377Z" fill="#c53762"></path><path d="M0 541L87 541L87 541L175 541L175 541L262 541L262 541L349 541L349 541L436 541L436 541L524 541L524 541L611 541L611 541L698 541L698 541L785 541L785 541L873 541L873 541L960 541L960 541L960 474L960 447L873 447L873 409L785 409L785 469L698 469L698 480L611 480L611 377L524 377L524 490L436 490L436 442L349 442L349 447L262 447L262 436L175 436L175 436L87 436L87 458L0 458Z" fill="#b0235f"></path></svg>