<svg id="visual" viewBox="0 0 900 600" width="900" height="600" xmlns="http://www.w3.org/2000/svg" xmlns:xlink="http://www.w3.org/1999/xlink" version="1.1"><path d="M0 109L13.7 117C27.3 125 54.7 141 82 166C109.3 191 136.7 225 163.8 224C191 223 218 187 245.2 165C272.3 143 299.7 135 327 137C354.3 139 381.7 151 409 152C436.3 153 463.7 143 491 150C518.3 157 545.7 181 573 182C600.3 183 627.7 161 654.8 178C682 195 709 251 736.2 263C763.3 275 790.7 243 818 229C845.3 215 872.7 219 886.3 221L900 223L900 0L886.3 0C872.7 0 845.3 0 818 0C790.7 0 763.3 0 736.2 0C709 0 682 0 654.8 0C627.7 0 600.3 0 573 0C545.7 0 518.3 0 491 0C463.7 0 436.3 0 409 0C381.7 0 354.3 0 327 0C299.7 0 272.3 0 245.2 0C218 0 191 0 163.8 0C136.7 0 109.3 0 82 0C54.7 0 27.3 0 13.7 0L0 0Z" fill="#6198ff"></path><path d="M0 247L13.7 250C27.3 253 54.7 259 82 275C109.3 291 136.7 317 163.8 307C191 297 218 251 245.2 238C272.3 225 299.7 245 327 258C354.3 271 381.7 277 409 272C436.3 267 463.7 251 491 246C518.3 241 545.7 247 573 250C600.3 253 627.7 253 654.8 273C682 293 709 333 736.2 347C763.3 361 790.7 349 818 343C845.3 337 872.7 337 886.3 337L900 337L900 221L886.3 219C872.7 217 845.3 213 818 227C790.7 241 763.3 273 736.2 261C709 249 682 193 654.8 176C627.7 159 600.3 181 573 180C545.7 179 518.3 155 491 148C463.7 141 436.3 151 409 150C381.7 149 354.3 137 327 135C299.7 133 272.3 141 245.2 163C218 185 191 221 163.8 222C136.7 223 109.3 189 82 164C54.7 139 27.3 123 13.7 115L0 107Z" fill="#3c80ff"></path><path d="M0 289L13.7 298C27.3 307 54.7 325 82 351C109.3 377 136.7 411 163.8 403C191 395 218 345 245.2 328C272.3 311 299.7 327 327 331C354.3 335 381.7 327 409 316C436.3 305 463.7 291 491 289C518.3 287 545.7 297 573 302C600.3 307 627.7 307 654.8 329C682 351 709 395 736.2 407C763.3 419 790.7 399 818 392C845.3 385 872.7 391 886.3 394L900 397L900 335L886.3 335C872.7 335 845.3 335 818 341C790.7 347 763.3 359 736.2 345C709 331 682 291 654.8 271C627.7 251 600.3 251 573 248C545.7 245 518.3 239 491 244C463.7 249 436.3 265 409 270C381.7 275 354.3 269 327 256C299.7 243 272.3 223 245.2 236C218 249 191 295 163.8 305C136.7 315 109.3 289 82 273C54.7 257 27.3 251 13.7 248L0 245Z" fill="#0066ff"></path><path d="M0 541L13.7 534C27.3 527 54.7 513 82 515C109.3 517 136.7 535 163.8 543C191 551 218 549 245.2 544C272.3 539 299.7 531 327 523C354.3 515 381.7 507 409 504C436.3 501 463.7 503 491 500C518.3 497 545.7 489 573 494C600.3 499 627.7 517 654.8 530C682 543 709 551 736.2 550C763.3 549 790.7 539 818 529C845.3 519 872.7 509 886.3 504L900 499L900 395L886.3 392C872.7 389 845.3 383 818 390C790.7 397 763.3 417 736.2 405C709 393 682 349 654.8 327C627.7 305 600.3 305 573 300C545.7 295 518.3 285 491 287C463.7 289 436.3 303 409 314C381.7 325 354.3 333 327 329C299.7 325 272.3 309 245.2 326C218 343 191 393 163.8 401C136.7 409 109.3 375 82 349C54.7 323 27.3 305 13.7 296L0 287Z" fill="#0059dd"></path><path d="M0 601L13.7 601C27.3 601 54.7 601 82 601C109.3 601 136.7 601 163.8 601C191 601 218 601 245.2 601C272.3 601 299.7 601 327 601C354.3 601 381.7 601 409 601C436.3 601 463.7 601 491 601C518.3 601 545.7 601 573 601C600.3 601 627.7 601 654.8 601C682 601 709 601 736.2 601C763.3 601 790.7 601 818 601C845.3 601 872.7 601 886.3 601L900 601L900 497L886.3 502C872.7 507 845.3 517 818 527C790.7 537 763.3 547 736.2 548C709 549 682 541 654.8 528C627.7 515 600.3 497 573 492C545.7 487 518.3 495 491 498C463.7 501 436.3 499 409 502C381.7 505 354.3 513 327 521C299.7 529 272.3 537 245.2 542C218 547 191 549 163.8 541C136.7 533 109.3 515 82 513C54.7 511 27.3 525 13.7 532L0 539Z" fill="#004cbb"></path></svg>