<svg id="visual" viewBox="0 0 960 540" width="960" height="540" xmlns="http://www.w3.org/2000/svg" xmlns:xlink="http://www.w3.org/1999/xlink" version="1.1"><path d="M0 82L87 60L175 93L262 60L349 39L436 66L524 44L611 114L698 71L785 82L873 77L960 120L960 0L873 0L785 0L698 0L611 0L524 0L436 0L349 0L262 0L175 0L87 0L0 0Z" fill="#00cc8e"></path><path d="M0 222L87 141L175 217L262 136L349 87L436 147L524 174L611 239L698 168L785 163L873 131L960 174L960 118L873 75L785 80L698 69L611 112L524 42L436 64L349 37L262 58L175 91L87 58L0 80Z" fill="#00b98a"></path><path d="M0 293L87 201L175 271L262 217L349 163L436 222L524 249L611 298L698 206L785 228L873 163L960 217L960 172L873 129L785 161L698 166L611 237L524 172L436 145L349 85L262 134L175 215L87 139L0 220Z" fill="#00a784"></path><path d="M0 363L87 309L175 357L262 395L349 260L436 352L524 417L611 449L698 303L785 428L873 325L960 395L960 215L873 161L785 226L698 204L611 296L524 247L436 220L349 161L262 215L175 269L87 199L0 291Z" fill="#00957c"></path><path d="M0 541L87 541L175 541L262 541L349 541L436 541L524 541L611 541L698 541L785 541L873 541L960 541L960 393L873 323L785 426L698 301L611 447L524 415L436 350L349 258L262 393L175 355L87 307L0 361Z" fill="#038373"></path></svg>