<svg id="visual" viewBox="0 0 960 540" width="960" height="540" xmlns="http://www.w3.org/2000/svg" xmlns:xlink="http://www.w3.org/1999/xlink" version="1.1"><path d="M0 125L14.5 133.2C29 141.3 58 157.7 87.2 162.2C116.3 166.7 145.7 159.3 174.8 150.3C204 141.3 233 130.7 262 143.3C291 156 320 192 349 200C378 208 407 188 436.2 168.2C465.3 148.3 494.7 128.7 523.8 138.7C553 148.7 582 188.3 611 186.5C640 184.7 669 141.3 698 128.7C727 116 756 134 785.2 140.3C814.3 146.7 843.7 141.3 872.8 134.2C902 127 931 118 945.5 113.5L960 109L960 0L945.5 0C931 0 902 0 872.8 0C843.7 0 814.3 0 785.2 0C756 0 727 0 698 0C669 0 640 0 611 0C582 0 553 0 523.8 0C494.7 0 465.3 0 436.2 0C407 0 378 0 349 0C320 0 291 0 262 0C233 0 204 0 174.8 0C145.7 0 116.3 0 87.2 0C58 0 29 0 14.5 0L0 0Z" fill="#004cbb"></path><path d="M0 336L14.5 333.3C29 330.7 58 325.3 87.2 325.3C116.3 325.3 145.7 330.7 174.8 319.8C204 309 233 282 262 282C291 282 320 309 349 317C378 325 407 314 436.2 315.8C465.3 317.7 494.7 332.3 523.8 343.2C553 354 582 361 611 352.8C640 344.7 669 321.3 698 301.5C727 281.7 756 265.3 785.2 269.8C814.3 274.3 843.7 299.7 872.8 310.5C902 321.3 931 317.7 945.5 315.8L960 314L960 107L945.5 111.5C931 116 902 125 872.8 132.2C843.7 139.3 814.3 144.7 785.2 138.3C756 132 727 114 698 126.7C669 139.3 640 182.7 611 184.5C582 186.3 553 146.7 523.8 136.7C494.7 126.7 465.3 146.3 436.2 166.2C407 186 378 206 349 198C320 190 291 154 262 141.3C233 128.7 204 139.3 174.8 148.3C145.7 157.3 116.3 164.7 87.2 160.2C58 155.7 29 139.3 14.5 131.2L0 123Z" fill="#0059dd"></path><path d="M0 390L14.5 388.2C29 386.3 58 382.7 87.2 386.2C116.3 389.7 145.7 400.3 174.8 403C204 405.7 233 400.3 262 408.5C291 416.7 320 438.3 349 444.7C378 451 407 442 436.2 431.2C465.3 420.3 494.7 407.7 523.8 406.8C553 406 582 417 611 411.7C640 406.3 669 384.7 698 374.7C727 364.7 756 366.3 785.2 367.2C814.3 368 843.7 368 872.8 382.5C902 397 931 426 945.5 440.5L960 455L960 312L945.5 313.8C931 315.7 902 319.3 872.8 308.5C843.7 297.7 814.3 272.3 785.2 267.8C756 263.3 727 279.7 698 299.5C669 319.3 640 342.7 611 350.8C582 359 553 352 523.8 341.2C494.7 330.3 465.3 315.7 436.2 313.8C407 312 378 323 349 315C320 307 291 280 262 280C233 280 204 307 174.8 317.8C145.7 328.7 116.3 323.3 87.2 323.3C58 323.3 29 328.7 14.5 331.3L0 334Z" fill="#0066ff"></path><path d="M0 492L14.5 487.5C29 483 58 474 87.2 469.5C116.3 465 145.7 465 174.8 466C204 467 233 469 262 474.5C291 480 320 489 349 492.5C378 496 407 494 436.2 490.3C465.3 486.7 494.7 481.3 523.8 480.5C553 479.7 582 483.3 611 481.5C640 479.7 669 472.3 698 471.5C727 470.7 756 476.3 785.2 474.7C814.3 473 843.7 464 872.8 468.5C902 473 931 491 945.5 500L960 509L960 453L945.5 438.5C931 424 902 395 872.8 380.5C843.7 366 814.3 366 785.2 365.2C756 364.3 727 362.7 698 372.7C669 382.7 640 404.3 611 409.7C582 415 553 404 523.8 404.8C494.7 405.7 465.3 418.3 436.2 429.2C407 440 378 449 349 442.7C320 436.3 291 414.7 262 406.5C233 398.3 204 403.7 174.8 401C145.7 398.3 116.3 387.7 87.2 384.2C58 380.7 29 384.3 14.5 386.2L0 388Z" fill="#3c80ff"></path><path d="M0 541L14.5 541C29 541 58 541 87.2 541C116.3 541 145.7 541 174.8 541C204 541 233 541 262 541C291 541 320 541 349 541C378 541 407 541 436.2 541C465.3 541 494.7 541 523.8 541C553 541 582 541 611 541C640 541 669 541 698 541C727 541 756 541 785.2 541C814.3 541 843.7 541 872.8 541C902 541 931 541 945.5 541L960 541L960 507L945.5 498C931 489 902 471 872.8 466.5C843.7 462 814.3 471 785.2 472.7C756 474.3 727 468.7 698 469.5C669 470.3 640 477.7 611 479.5C582 481.3 553 477.7 523.8 478.5C494.7 479.3 465.3 484.7 436.2 488.3C407 492 378 494 349 490.5C320 487 291 478 262 472.5C233 467 204 465 174.8 464C145.7 463 116.3 463 87.2 467.5C58 472 29 481 14.5 485.5L0 490Z" fill="#6198ff"></path></svg>